<mxfile host="app.diagrams.net" modified="2024-07-11T13:57:53.441Z" agent="Mozilla/5.0 (Macintosh; Intel Mac OS X 10.15; rv:127.0) Gecko/20100101 Firefox/127.0" etag="jCwM2QVI3gEdfUqC7ajb" version="24.6.4" type="github">
  <diagram name="Page-1" id="2IDyRpzIsD8r2ocvUU7Q">
    <mxGraphModel dx="1249" dy="1760" grid="1" gridSize="10" guides="1" tooltips="1" connect="1" arrows="1" fold="1" page="1" pageScale="1" pageWidth="850" pageHeight="1100" math="0" shadow="0">
      <root>
        <mxCell id="0" />
        <mxCell id="1" parent="0" />
        <mxCell id="DYqEQSoSaZ3Oapl9VoSh-2" value="Contact FastAPI" style="swimlane;whiteSpace=wrap;html=1;" vertex="1" parent="1">
          <mxGeometry x="30" y="150" width="750" height="350" as="geometry" />
        </mxCell>
        <mxCell id="DYqEQSoSaZ3Oapl9VoSh-10" style="edgeStyle=orthogonalEdgeStyle;rounded=0;orthogonalLoop=1;jettySize=auto;html=1;exitX=1;exitY=0.5;exitDx=0;exitDy=0;entryX=0.5;entryY=0;entryDx=0;entryDy=0;shape=link;" edge="1" parent="DYqEQSoSaZ3Oapl9VoSh-2" source="DYqEQSoSaZ3Oapl9VoSh-4" target="DYqEQSoSaZ3Oapl9VoSh-8">
          <mxGeometry relative="1" as="geometry" />
        </mxCell>
        <mxCell id="DYqEQSoSaZ3Oapl9VoSh-20" style="edgeStyle=orthogonalEdgeStyle;rounded=0;orthogonalLoop=1;jettySize=auto;html=1;exitX=0.5;exitY=1;exitDx=0;exitDy=0;shape=link;" edge="1" parent="DYqEQSoSaZ3Oapl9VoSh-2" source="DYqEQSoSaZ3Oapl9VoSh-4" target="DYqEQSoSaZ3Oapl9VoSh-5">
          <mxGeometry relative="1" as="geometry" />
        </mxCell>
        <mxCell id="DYqEQSoSaZ3Oapl9VoSh-4" value="&lt;div&gt;&lt;font style=&quot;font-size: 18px;&quot;&gt;Endpoints (api.py)&lt;/font&gt;&lt;/div&gt;&lt;div align=&quot;left&quot;&gt;&lt;font style=&quot;font-size: 14px;&quot;&gt;create a contact: /contact POST&lt;/font&gt;&lt;/div&gt;&lt;div align=&quot;left&quot;&gt;&lt;font size=&quot;3&quot;&gt;view a specific contact: /contact/{id} GET&lt;/font&gt;&lt;/div&gt;&lt;div align=&quot;left&quot;&gt;&lt;font size=&quot;3&quot;&gt;list all contacts: /contacts GET&lt;/font&gt;&lt;br&gt;&lt;/div&gt;" style="rounded=0;whiteSpace=wrap;html=1;" vertex="1" parent="DYqEQSoSaZ3Oapl9VoSh-2">
          <mxGeometry x="130" y="40" width="310" height="100" as="geometry" />
        </mxCell>
        <mxCell id="DYqEQSoSaZ3Oapl9VoSh-5" value="&lt;div&gt;&lt;font style=&quot;font-size: 18px;&quot;&gt;Controller (database.py)&lt;/font&gt;&lt;/div&gt;&lt;div align=&quot;left&quot;&gt;&lt;font style=&quot;font-size: 14px;&quot;&gt;create a contact: &lt;/font&gt;&lt;font color=&quot;#00ff00&quot;&gt;&lt;span style=&quot;white-space: pre;&quot;&gt;&lt;b&gt;create_contact&lt;/b&gt;&lt;/span&gt;&lt;/font&gt;&lt;/div&gt;&lt;div align=&quot;left&quot;&gt;&lt;font size=&quot;3&quot;&gt;view a specific contact: &lt;/font&gt;&lt;font color=&quot;#00ff00&quot;&gt;&lt;span style=&quot;white-space: pre;&quot;&gt;&lt;b&gt;get_contact_by_id&lt;/b&gt;&lt;/span&gt;&lt;/font&gt;&lt;/div&gt;&lt;div align=&quot;left&quot;&gt;&lt;font size=&quot;3&quot;&gt;list all contacts: &lt;/font&gt;&lt;font color=&quot;#00ff00&quot;&gt;&lt;span style=&quot;white-space: pre;&quot;&gt;&lt;b&gt;get_contacts&lt;/b&gt;&lt;/span&gt;&lt;/font&gt;&lt;/div&gt;" style="rounded=0;whiteSpace=wrap;html=1;" vertex="1" parent="DYqEQSoSaZ3Oapl9VoSh-2">
          <mxGeometry x="130" y="210" width="310" height="100" as="geometry" />
        </mxCell>
        <mxCell id="DYqEQSoSaZ3Oapl9VoSh-8" value="&lt;div&gt;&lt;font style=&quot;font-size: 18px;&quot;&gt;Models (models.py)&lt;/font&gt;&lt;/div&gt;&lt;div&gt;-Contact model (metier)&lt;br&gt;&lt;/div&gt;&lt;div&gt;-ContactResponse model (db representation)&lt;br&gt;&lt;/div&gt;" style="rounded=0;whiteSpace=wrap;html=1;" vertex="1" parent="DYqEQSoSaZ3Oapl9VoSh-2">
          <mxGeometry x="460" y="130" width="280" height="100" as="geometry" />
        </mxCell>
        <mxCell id="DYqEQSoSaZ3Oapl9VoSh-9" style="edgeStyle=orthogonalEdgeStyle;rounded=0;orthogonalLoop=1;jettySize=auto;html=1;exitX=1;exitY=0.5;exitDx=0;exitDy=0;entryX=0.536;entryY=1.01;entryDx=0;entryDy=0;entryPerimeter=0;shape=link;" edge="1" parent="DYqEQSoSaZ3Oapl9VoSh-2" source="DYqEQSoSaZ3Oapl9VoSh-5" target="DYqEQSoSaZ3Oapl9VoSh-8">
          <mxGeometry relative="1" as="geometry" />
        </mxCell>
        <mxCell id="DYqEQSoSaZ3Oapl9VoSh-6" value="MONGODB&lt;br&gt;(Compounds indexes: fist_name +last_name)" style="shape=cylinder3;whiteSpace=wrap;html=1;boundedLbl=1;backgroundOutline=1;size=15;" vertex="1" parent="1">
          <mxGeometry x="210" y="580" width="195" height="160" as="geometry" />
        </mxCell>
        <mxCell id="DYqEQSoSaZ3Oapl9VoSh-12" style="rounded=0;orthogonalLoop=1;jettySize=auto;html=1;exitX=0.5;exitY=1;exitDx=0;exitDy=0;entryX=0.538;entryY=0.019;entryDx=0;entryDy=0;entryPerimeter=0;strokeColor=default;shape=link;" edge="1" parent="1" source="DYqEQSoSaZ3Oapl9VoSh-5" target="DYqEQSoSaZ3Oapl9VoSh-6">
          <mxGeometry relative="1" as="geometry" />
        </mxCell>
        <mxCell id="DYqEQSoSaZ3Oapl9VoSh-15" style="edgeStyle=orthogonalEdgeStyle;rounded=0;orthogonalLoop=1;jettySize=auto;html=1;exitX=0.5;exitY=1;exitDx=0;exitDy=0;" edge="1" parent="1" source="DYqEQSoSaZ3Oapl9VoSh-14" target="DYqEQSoSaZ3Oapl9VoSh-4">
          <mxGeometry relative="1" as="geometry" />
        </mxCell>
        <mxCell id="DYqEQSoSaZ3Oapl9VoSh-14" value="&lt;div&gt;&lt;font style=&quot;font-size: 18px;&quot;&gt;Contact UI (N/A)&lt;br&gt;-Add + show + list Contact&lt;br&gt;&lt;/font&gt;&lt;/div&gt;" style="rounded=0;whiteSpace=wrap;html=1;" vertex="1" parent="1">
          <mxGeometry x="160" y="-110" width="310" height="100" as="geometry" />
        </mxCell>
        <mxCell id="DYqEQSoSaZ3Oapl9VoSh-18" value="DOCKER CONTAINER" style="swimlane;horizontal=0;whiteSpace=wrap;html=1;" vertex="1" parent="1">
          <mxGeometry x="150" y="535" width="390" height="250" as="geometry" />
        </mxCell>
        <mxCell id="DYqEQSoSaZ3Oapl9VoSh-19" value="DOCKER CONTAINER" style="swimlane;horizontal=0;whiteSpace=wrap;html=1;" vertex="1" parent="1">
          <mxGeometry y="110" width="810" height="400" as="geometry" />
        </mxCell>
        <mxCell id="DYqEQSoSaZ3Oapl9VoSh-11" value="Logging" style="shape=tape;whiteSpace=wrap;html=1;" vertex="1" parent="DYqEQSoSaZ3Oapl9VoSh-19">
          <mxGeometry x="50" y="70" width="120" height="60" as="geometry" />
        </mxCell>
      </root>
    </mxGraphModel>
  </diagram>
</mxfile>
